<?xml version="1.0" encoding="utf-8"?>
<!-- Generator: Adobe Illustrator 23.0.1, SVG Export Plug-In . SVG Version: 6.00 Build 0)  -->
<svg version="1.1" id="Layer_1" xmlns="http://www.w3.org/2000/svg" xmlns:xlink="http://www.w3.org/1999/xlink" x="0px" y="0px"
	 width="1000px" height="908.01px" viewBox="0 0 1000 908.01" style="enable-background:new 0 0 1000 908.01;" xml:space="preserve"
	>
<style type="text/css">
	.st0{fill:#2095F3;}
</style>
<g>
	<path class="st0" d="M543.46,323.97c-21.91,77.74-53.71,154.06-94.7,224.74c-11.31,19.79-24.03,39.58-36.75,58.66
		c-55.12,4.95-109.54,14.13-162.54,27.56c-24.73,6.36-48.76,13.43-72.79,21.2c55.12-53.71,102.47-114.49,141.34-182.33
		c55.12-94.7,90.46-200,105.3-308.13H357.6L500.35-0.41l142.76,165.37h-67.84C568.9,218.67,558.3,271.67,543.46,323.97z"/>
	<path class="st0" d="M698.23,742.34c-56.54-58.66-106.01-123.67-147-195.05c-11.31-19.79-22.61-40.28-32.51-60.78
		c23.32-50.18,42.4-101.77,57.95-154.06c7.07-24.03,12.72-48.76,17.67-73.5c19.08,74.2,48.06,145.58,86.93,214.13
		c55.12,94.7,127.92,178.8,214.13,245.23l32.51-56.54L1000,868.14l-214.84,40.28l33.92-58.66
		C776.68,816.55,735.69,780.51,698.23,742.34z"/>
	<path class="st0" d="M0,866.02l72.08-206.36l33.92,58.66c49.47-21.91,100.35-38.87,152.65-52.3
		c79.15-19.79,160.42-29.68,242.4-29.68c23.32,0,45.94,0.71,69.26,2.12c31.8,45.23,66.43,87.63,104.59,127.21
		c17.67,18.37,36.04,35.34,55.12,52.3c-73.5-21.2-150.53-31.8-228.98-31.8c-109.54,0-218.37,21.91-319.43,62.9l32.51,56.54L0,866.02
		z"/>
</g>
</svg>
