<?xml version="1.0" encoding="utf-8"?>
<!-- Generator: Adobe Illustrator 23.0.1, SVG Export Plug-In . SVG Version: 6.00 Build 0)  -->
<svg version="1.1" id="Layer_1" xmlns="http://www.w3.org/2000/svg" xmlns:xlink="http://www.w3.org/1999/xlink" x="0px" y="0px"
	 width="1033.66px" height="157.23px" viewBox="0 0 1033.66 157.23" style="enable-background:new 0 0 1033.66 157.23;"
	 xml:space="preserve">
<style type="text/css">
	.st0{fill:#111111;}
	.st1{fill:#2095F3;}
</style>
<g>
	<path class="st0" d="M257.02,82.12c-1.12-1.44-2.65-2.6-4.57-3.49c-1.92-0.88-3.89-1.32-5.89-1.32c-2.09,0-3.97,0.42-5.65,1.26
		c-1.68,0.84-3.13,1.97-4.33,3.37c-1.2,1.4-2.15,3.03-2.83,4.87c-0.68,1.85-1.02,3.81-1.02,5.89c0,2.09,0.32,4.05,0.96,5.89
		c0.64,1.85,1.58,3.47,2.83,4.87c1.24,1.4,2.72,2.51,4.45,3.31c1.72,0.8,3.67,1.2,5.83,1.2c2,0,3.99-0.38,5.95-1.14
		c1.96-0.76,3.55-1.86,4.75-3.31l10.94,13.35c-2.49,2.41-5.69,4.29-9.62,5.65c-3.93,1.36-8.1,2.04-12.51,2.04
		c-4.73,0-9.15-0.72-13.25-2.17c-4.1-1.44-7.66-3.55-10.69-6.31c-3.03-2.77-5.4-6.11-7.14-10.04c-1.73-3.93-2.6-8.38-2.6-13.35
		c0-4.89,0.87-9.3,2.6-13.23c1.73-3.93,4.11-7.28,7.14-10.04c3.02-2.77,6.59-4.89,10.69-6.37c4.1-1.48,8.48-2.23,13.13-2.23
		c2.17,0,4.31,0.2,6.43,0.6c2.12,0.4,4.17,0.94,6.13,1.62c1.96,0.68,3.77,1.52,5.41,2.53c1.64,1,3.07,2.1,4.27,3.31L257.02,82.12z"
		/>
	<path class="st0" d="M314.38,122.65V90.17c0-1.68-0.12-3.29-0.36-4.81c-0.24-1.52-0.7-2.87-1.38-4.03
		c-0.68-1.16-1.58-2.08-2.71-2.77c-1.12-0.68-2.57-1.02-4.33-1.02c-3.45,0-6.09,1.22-7.94,3.67c-1.85,2.45-2.77,5.47-2.77,9.08
		v32.35h-19.72V31.72h19.72v38.61h0.24c1.36-2.41,3.53-4.55,6.49-6.43c2.97-1.88,6.53-2.83,10.7-2.83c4.09,0,7.52,0.72,10.28,2.16
		s5.01,3.31,6.74,5.59c1.72,2.29,2.97,4.91,3.73,7.88c0.76,2.97,1.14,5.93,1.14,8.9v37.04H314.38z"/>
	<path class="st0" d="M346.39,70.93c3.53-3.37,7.64-5.89,12.33-7.58c4.69-1.68,9.48-2.53,14.37-2.53c5.05,0,9.32,0.62,12.81,1.86
		c3.49,1.24,6.31,3.17,8.48,5.77c2.16,2.61,3.75,5.89,4.75,9.86c1,3.97,1.5,8.68,1.5,14.13v30.19h-18.04v-6.37h-0.36
		c-1.52,2.49-3.83,4.41-6.92,5.77c-3.09,1.36-6.43,2.04-10.04,2.04c-2.41,0-4.89-0.32-7.46-0.96c-2.57-0.64-4.91-1.68-7.04-3.13
		c-2.13-1.44-3.87-3.37-5.23-5.77c-1.36-2.41-2.04-5.37-2.04-8.9c0-4.33,1.18-7.82,3.55-10.46c2.36-2.65,5.41-4.69,9.14-6.13
		c3.73-1.44,7.88-2.41,12.45-2.89c4.57-0.48,9.02-0.72,13.35-0.72v-0.96c0-2.97-1.04-5.15-3.13-6.55c-2.09-1.4-4.65-2.1-7.7-2.1
		c-2.81,0-5.51,0.6-8.12,1.8c-2.61,1.2-4.83,2.65-6.68,4.33L346.39,70.93z M382.59,96.55h-2.53c-2.16,0-4.35,0.1-6.55,0.3
		c-2.21,0.2-4.17,0.58-5.89,1.14c-1.73,0.56-3.15,1.38-4.27,2.47c-1.12,1.08-1.68,2.51-1.68,4.27c0,1.12,0.26,2.09,0.78,2.89
		c0.52,0.8,1.18,1.44,1.98,1.92c0.8,0.48,1.72,0.82,2.77,1.02c1.04,0.2,2.04,0.3,3.01,0.3c4.01,0,7.08-1.1,9.2-3.31
		c2.12-2.2,3.19-5.19,3.19-8.96V96.55z"/>
	<path class="st0" d="M452.98,122.65V89.93c0-1.68-0.14-3.29-0.42-4.81c-0.28-1.52-0.74-2.87-1.38-4.03
		c-0.64-1.16-1.54-2.08-2.71-2.77c-1.16-0.68-2.63-1.02-4.39-1.02c-1.76,0-3.31,0.34-4.63,1.02c-1.32,0.68-2.43,1.62-3.31,2.83
		c-0.88,1.2-1.54,2.59-1.98,4.15c-0.44,1.56-0.66,3.19-0.66,4.87v32.47h-19.84v-59.9h19.12v8.3h0.24c0.72-1.28,1.66-2.54,2.83-3.79
		c1.16-1.24,2.53-2.3,4.09-3.19c1.56-0.88,3.27-1.6,5.11-2.16c1.84-0.56,3.81-0.84,5.89-0.84c4.01,0,7.42,0.72,10.22,2.16
		c2.81,1.44,5.07,3.31,6.8,5.59c1.72,2.29,2.97,4.91,3.73,7.88c0.76,2.97,1.14,5.93,1.14,8.9v37.04H452.98z"/>
	<path class="st0" d="M525.34,122.65V89.93c0-1.68-0.14-3.29-0.42-4.81c-0.28-1.52-0.74-2.87-1.38-4.03
		c-0.64-1.16-1.54-2.08-2.71-2.77c-1.16-0.68-2.63-1.02-4.39-1.02c-1.76,0-3.31,0.34-4.63,1.02c-1.32,0.68-2.43,1.62-3.31,2.83
		c-0.88,1.2-1.54,2.59-1.99,4.15c-0.44,1.56-0.66,3.19-0.66,4.87v32.47h-19.84v-59.9h19.12v8.3h0.24c0.72-1.28,1.66-2.54,2.83-3.79
		c1.16-1.24,2.53-2.3,4.09-3.19c1.56-0.88,3.27-1.6,5.11-2.16c1.84-0.56,3.81-0.84,5.89-0.84c4.01,0,7.42,0.72,10.22,2.16
		c2.81,1.44,5.07,3.31,6.8,5.59c1.72,2.29,2.96,4.91,3.73,7.88c0.76,2.97,1.14,5.93,1.14,8.9v37.04H525.34z"/>
	<path class="st0" d="M617.47,93.42c0,0.8,0,1.6,0,2.41c0,0.8-0.04,1.56-0.12,2.29h-43.42c0.16,1.68,0.66,3.21,1.5,4.57
		c0.84,1.36,1.92,2.55,3.25,3.55c1.32,1,2.81,1.79,4.45,2.35c1.64,0.56,3.35,0.84,5.11,0.84c3.13,0,5.77-0.58,7.94-1.74
		c2.17-1.16,3.93-2.67,5.29-4.51l13.71,8.66c-2.81,4.09-6.52,7.24-11.13,9.44c-4.61,2.2-9.96,3.31-16.06,3.31
		c-4.49,0-8.74-0.7-12.75-2.1c-4.01-1.4-7.52-3.45-10.52-6.13c-3.01-2.69-5.37-5.99-7.1-9.92c-1.73-3.93-2.59-8.42-2.59-13.47
		c0-4.89,0.84-9.32,2.53-13.29c1.68-3.97,3.97-7.34,6.86-10.1c2.89-2.77,6.29-4.91,10.22-6.43c3.93-1.52,8.18-2.29,12.75-2.29
		c4.41,0,8.46,0.74,12.15,2.23c3.69,1.48,6.86,3.63,9.5,6.43c2.65,2.81,4.71,6.21,6.19,10.22
		C616.73,83.72,617.47,88.29,617.47,93.42z M599.31,85.84c0-3.13-0.98-5.81-2.95-8.06c-1.97-2.24-4.91-3.37-8.84-3.37
		c-1.92,0-3.69,0.3-5.29,0.9c-1.61,0.6-3.01,1.42-4.21,2.47c-1.2,1.04-2.17,2.27-2.89,3.67c-0.72,1.4-1.12,2.87-1.2,4.39H599.31z"/>
	<path class="st0" d="M628.13,122.65V31.72h20.09v90.92H628.13z"/>
	<path class="st0" d="M718.24,91.15c0,0.59,0,1.23,0,1.91c0,0.68-0.04,1.4-0.13,2.16h-49.28c0.08,2.96,0.68,5.76,1.78,8.38
		c1.1,2.63,2.62,4.91,4.57,6.86c1.95,1.95,4.23,3.49,6.86,4.64c2.62,1.14,5.46,1.71,8.51,1.71c4.49,0,8.36-1.04,11.62-3.11
		c3.26-2.07,5.73-4.46,7.43-7.18l6.48,5.08c-3.56,4.49-7.47,7.71-11.75,9.65c-4.28,1.95-8.87,2.92-13.78,2.92
		c-4.4,0-8.49-0.78-12.25-2.35c-3.77-1.57-7.01-3.75-9.72-6.54c-2.71-2.79-4.85-6.1-6.41-9.91c-1.57-3.81-2.35-7.96-2.35-12.45
		c0-4.49,0.76-8.64,2.29-12.45c1.52-3.81,3.64-7.11,6.35-9.91c2.71-2.79,5.88-4.97,9.53-6.54c3.64-1.57,7.58-2.35,11.81-2.35
		c4.66,0,8.76,0.78,12.32,2.35c3.56,1.57,6.52,3.68,8.89,6.35c2.37,2.67,4.17,5.78,5.4,9.33C717.63,83.28,718.24,87.09,718.24,91.15
		z M709.48,88.36c-0.25-5.59-2.05-10.22-5.4-13.91c-3.35-3.68-8.11-5.52-14.29-5.52c-2.88,0-5.55,0.53-8,1.59
		c-2.46,1.06-4.62,2.5-6.48,4.32c-1.86,1.82-3.35,3.9-4.45,6.22c-1.1,2.33-1.74,4.76-1.91,7.3H709.48z"/>
	<path class="st0" d="M741.25,63.21c0.17,1.61,0.3,3.39,0.38,5.33c0.08,1.95,0.13,3.56,0.13,4.83h0.25
		c1.69-3.47,4.44-6.29,8.25-8.45c3.81-2.16,7.83-3.24,12.06-3.24c7.54,0,13.19,2.24,16.96,6.73c3.77,4.49,5.65,10.41,5.65,17.78
		v36.45h-8.64V89.75c0-3.13-0.25-5.97-0.76-8.51s-1.38-4.72-2.6-6.54c-1.23-1.82-2.88-3.24-4.95-4.25
		c-2.08-1.02-4.68-1.52-7.81-1.52c-2.29,0-4.51,0.47-6.67,1.4c-2.16,0.93-4.09,2.35-5.78,4.25c-1.7,1.9-3.05,4.32-4.06,7.24
		c-1.02,2.92-1.52,6.37-1.52,10.35v30.48h-8.64V76.29c0-1.61-0.04-3.68-0.13-6.22c-0.08-2.54-0.21-4.83-0.38-6.86H741.25z"/>
	<path class="st0" d="M807.19,134.58c2.37,3.05,5.61,5.63,9.71,7.75c4.11,2.12,8.45,3.17,13.02,3.17c4.23,0,7.83-0.62,10.79-1.84
		c2.96-1.23,5.35-2.9,7.18-5.02c1.82-2.12,3.15-4.59,4-7.43c0.85-2.84,1.27-5.86,1.27-9.08v-11.18h-0.25
		c-2.29,3.73-5.52,6.6-9.72,8.64c-4.19,2.03-8.45,3.05-12.76,3.05c-4.66,0-8.87-0.76-12.64-2.29c-3.77-1.52-6.99-3.62-9.65-6.29
		s-4.74-5.86-6.22-9.59c-1.48-3.72-2.22-7.75-2.22-12.06c0-4.23,0.74-8.21,2.22-11.94c1.48-3.72,3.56-6.98,6.22-9.78
		s5.88-4.99,9.65-6.6c3.77-1.61,7.98-2.41,12.64-2.41c4.32,0,8.55,1.02,12.7,3.05c4.15,2.03,7.41,4.95,9.78,8.76h0.25V63.21h8.64
		v58.93c0,3.22-0.44,6.65-1.33,10.29c-0.89,3.64-2.54,6.99-4.95,10.03s-5.7,5.59-9.84,7.62c-4.15,2.03-9.53,3.05-16.13,3.05
		c-5.5,0-10.75-1.06-15.75-3.17c-5-2.12-9.27-5.04-12.83-8.76L807.19,134.58z M808.84,92.17c0,3.13,0.51,6.1,1.52,8.89
		c1.02,2.79,2.48,5.25,4.38,7.37c1.91,2.12,4.25,3.79,7.05,5.02c2.79,1.23,5.97,1.84,9.53,1.84c3.3,0,6.35-0.55,9.14-1.65
		c2.79-1.1,5.21-2.67,7.24-4.7c2.03-2.03,3.62-4.46,4.76-7.3c1.14-2.84,1.71-5.99,1.71-9.46c0-3.13-0.57-6.1-1.71-8.89
		c-1.14-2.79-2.73-5.25-4.76-7.37c-2.03-2.12-4.45-3.81-7.24-5.08s-5.84-1.91-9.14-1.91c-3.56,0-6.73,0.64-9.53,1.91
		s-5.14,2.96-7.05,5.08c-1.9,2.12-3.37,4.57-4.38,7.37C809.35,86.07,808.84,89.04,808.84,92.17z"/>
	<path class="st0" d="M891.34,40.35c0,1.78-0.63,3.24-1.9,4.38c-1.27,1.14-2.67,1.71-4.19,1.71s-2.92-0.57-4.19-1.71
		c-1.27-1.14-1.9-2.6-1.9-4.38c0-1.78,0.63-3.24,1.9-4.38c1.27-1.14,2.67-1.71,4.19-1.71s2.92,0.57,4.19,1.71
		C890.7,37.11,891.34,38.57,891.34,40.35z M889.56,122.65h-8.64V63.21h8.64V122.65z"/>
	<path class="st0" d="M916.62,63.21c0.17,1.61,0.3,3.39,0.38,5.33c0.08,1.95,0.13,3.56,0.13,4.83h0.25
		c1.69-3.47,4.44-6.29,8.25-8.45c3.81-2.16,7.83-3.24,12.06-3.24c7.54,0,13.19,2.24,16.96,6.73c3.77,4.49,5.65,10.41,5.65,17.78
		v36.45h-8.64V89.75c0-3.13-0.25-5.97-0.76-8.51s-1.38-4.72-2.6-6.54c-1.23-1.82-2.88-3.24-4.95-4.25
		c-2.08-1.02-4.68-1.52-7.81-1.52c-2.29,0-4.51,0.47-6.67,1.4c-2.16,0.93-4.09,2.35-5.78,4.25c-1.7,1.9-3.05,4.32-4.06,7.24
		c-1.02,2.92-1.52,6.37-1.52,10.35v30.48h-8.64V76.29c0-1.61-0.04-3.68-0.13-6.22c-0.08-2.54-0.21-4.83-0.38-6.86H916.62z"/>
	<path class="st0" d="M1033.73,91.15c0,0.59,0,1.23,0,1.91c0,0.68-0.04,1.4-0.13,2.16h-49.28c0.08,2.96,0.68,5.76,1.78,8.38
		c1.1,2.63,2.62,4.91,4.57,6.86c1.95,1.95,4.23,3.49,6.86,4.64c2.62,1.14,5.46,1.71,8.51,1.71c4.49,0,8.36-1.04,11.62-3.11
		c3.26-2.07,5.73-4.46,7.43-7.18l6.48,5.08c-3.56,4.49-7.47,7.71-11.75,9.65c-4.28,1.95-8.87,2.92-13.78,2.92
		c-4.4,0-8.49-0.78-12.25-2.35c-3.77-1.57-7.01-3.75-9.72-6.54c-2.71-2.79-4.85-6.1-6.41-9.91c-1.57-3.81-2.35-7.96-2.35-12.45
		c0-4.49,0.76-8.64,2.29-12.45c1.52-3.81,3.64-7.11,6.35-9.91c2.71-2.79,5.88-4.97,9.53-6.54c3.64-1.57,7.58-2.35,11.81-2.35
		c4.66,0,8.76,0.78,12.32,2.35c3.56,1.57,6.52,3.68,8.89,6.35c2.37,2.67,4.17,5.78,5.4,9.33
		C1033.11,83.28,1033.73,87.09,1033.73,91.15z M1024.97,88.36c-0.25-5.59-2.05-10.22-5.4-13.91c-3.35-3.68-8.11-5.52-14.29-5.52
		c-2.88,0-5.55,0.53-8,1.59c-2.46,1.06-4.62,2.5-6.48,4.32c-1.86,1.82-3.35,3.9-4.45,6.22c-1.1,2.33-1.74,4.76-1.91,7.3H1024.97z"/>
</g>
<g>
	<path class="st1" d="M94.02,56.12C90.23,69.57,84.73,82.77,77.64,95c-1.96,3.42-4.16,6.85-6.36,10.15
		c-9.54,0.86-18.95,2.45-28.12,4.77c-4.28,1.1-8.44,2.32-12.59,3.67c9.54-9.29,17.73-19.81,24.45-31.54
		c9.54-16.38,15.65-34.6,18.22-53.31H61.87L86.56,0l24.7,28.61H99.52C98.42,37.9,96.59,47.07,94.02,56.12z"/>
	<path class="st1" d="M120.8,128.5c-9.78-10.15-18.34-21.4-25.43-33.75c-1.96-3.42-3.91-6.97-5.62-10.51
		c4.03-8.68,7.34-17.61,10.03-26.65c1.22-4.16,2.2-8.44,3.06-12.72c3.3,12.84,8.31,25.19,15.04,37.05
		c9.54,16.38,22.13,30.93,37.05,42.43l5.62-9.78l12.47,35.7l-37.17,6.97l5.87-10.15C134.37,141.34,127.28,135.1,120.8,128.5z"/>
	<path class="st1" d="M0,149.9l12.47-35.7l5.87,10.15c8.56-3.79,17.36-6.72,26.41-9.05c13.69-3.42,27.75-5.14,41.94-5.14
		c4.03,0,7.95,0.12,11.98,0.37c5.5,7.82,11.49,15.16,18.1,22.01c3.06,3.18,6.24,6.11,9.54,9.05c-12.72-3.67-26.04-5.5-39.61-5.5
		c-18.95,0-37.78,3.79-55.26,10.88l5.62,9.78L0,149.9z"/>
</g>
</svg>
